<?xml version="1.0" encoding="UTF-8" standalone="no"?>
<!DOCTYPE svg PUBLIC "-//W3C//DTD SVG 1.1//EN" "http://www.w3.org/Graphics/SVG/1.1/DTD/svg11.dtd">
<svg height="37" viewBox="0 0 420 708" version="1.1" xmlns="http://www.w3.org/2000/svg" xmlns:xlink="http://www.w3.org/1999/xlink" xml:space="preserve" xmlns:serif="http://www.serif.com/" style="fill-rule:evenodd;clip-rule:evenodd;stroke-linejoin:round;stroke-miterlimit:2;">
    <g transform="matrix(1,0,0,1,-1710,-5272)">
        <g transform="matrix(3,0,0,1,0,4986)">
            <g transform="matrix(0.333333,0,0,1,426.667,30)">
                <path d="M430.045,622.66L430.044,622.66L430.044,336.509C430.044,292.355 465.891,256.509 510.044,256.509C554.197,256.509 590.044,292.355 590.044,336.509L590.044,403.26C579.123,407.442 568.389,412.536 557.941,418.568C536.126,431.163 517.229,446.882 501.489,464.836C511.668,455.917 522.862,447.858 535.024,440.836C635.376,382.898 763.887,417.332 821.824,517.683C860.647,584.926 857.994,664.812 821.826,727.637L821.827,727.638L708.751,923.49C686.675,961.728 637.707,974.849 599.469,952.772C561.232,930.696 548.111,881.728 570.187,843.49L573.563,837.643C585.112,839.482 596.955,840.438 609.019,840.438C634.19,840.438 658.398,836.279 680.991,828.612C595.205,845.661 504.313,807.549 458.176,727.636C439.06,694.527 430,658.353 430.045,622.66ZM641.767,542.581C686.063,542.581 722.025,578.544 722.025,622.839C722.025,667.135 686.063,703.097 641.767,703.097C597.472,703.097 561.509,667.135 561.509,622.839C561.509,578.544 597.472,542.581 641.767,542.581Z" style="fill:white;"/>
            </g>
        </g>
    </g>
</svg>
